<svg width="126" height="62" viewBox="0 0 126 62" fill="none" xmlns="http://www.w3.org/2000/svg">
<rect width="126" height="62" fill="#C8C8C8"/>
<g id="Frame 50">
<rect width="1440" height="11943" transform="translate(-165 -104)" fill="white"/>
<g id="Group 2">
<g id="Group">
<path id="Vector" d="M32.3924 2.16645C33.8005 2.1427 35.0613 2.2638 36.2865 2.65558C37.0772 2.90727 37.8156 3.26819 38.5185 3.71933C39.6368 4.4364 40.6555 5.26983 41.5554 6.24335C43.0869 7.90307 44.4142 9.71001 45.4209 11.7354C45.9932 12.8894 46.3897 14.0956 46.5393 15.3896C46.6058 15.9714 46.7934 16.5555 46.6841 17.1349C46.506 18.0846 46.5345 19.051 46.3208 20.0008C46.0929 21.0147 45.8175 22.0024 45.4186 22.9593C44.9009 24.1988 44.2788 25.3812 43.4786 26.4592C43.0299 27.0647 42.5811 27.6797 42.0516 28.2116C41.4153 28.8503 40.6578 29.3655 40.0167 29.9995C39.0931 30.9137 37.9557 31.455 36.8041 31.975C36.2651 32.2196 35.6834 32.3716 35.123 32.5686C35.0352 32.5995 34.9521 32.6399 34.8713 32.685C34.3228 32.9984 33.7197 33.1456 33.1071 33.2572C32.9955 33.2762 32.8673 33.281 32.7818 33.3403C32.0956 33.8128 31.2788 33.9577 30.5166 34.2355C29.1751 34.7246 27.8145 35.1591 26.454 35.5913C25.8081 35.7955 25.1433 35.9332 24.4927 36.1184C23.8754 36.2917 23.2675 36.4936 22.6525 36.6669C21.546 36.9756 20.4324 37.2676 19.326 37.5763C18.3263 37.8541 17.3338 38.1557 16.3366 38.4311C15.9187 38.5475 15.4913 38.6306 15.0639 38.716C14.6483 38.8015 14.2708 38.9582 13.9526 39.2455C13.7935 39.3904 13.7864 39.5352 13.9384 39.6848C14.0334 39.7774 14.126 39.8795 14.2399 39.9436C14.8312 40.2737 15.4319 40.5847 16.0208 40.9171C17.5713 41.7957 19.2096 42.5151 20.658 43.586C21.7336 44.3814 22.8045 45.1745 23.7994 46.0768C25.0626 47.2212 26.1881 48.4892 27.2257 49.8379C27.513 50.213 27.7789 50.6048 28.0544 50.9895C28.0757 51.0203 28.1066 51.0464 28.1256 51.0797C28.2847 51.3931 28.5506 51.6899 28.3227 52.077C28.1137 52.4355 27.7742 52.502 27.3943 52.4877C26.9574 52.4735 26.5205 52.4996 26.0836 52.4735C24.9676 52.4094 24.0131 52.0057 23.2343 51.1699C21.9473 49.7904 20.5607 48.5058 19.0814 47.3352C17.9417 46.4329 16.6713 45.7254 15.363 45.0914C14.1117 44.4859 12.8556 43.8804 11.7658 43.0043C10.8801 42.2943 10.0681 41.5107 9.60742 40.4304C9.15628 39.3714 9.1729 38.3385 9.71427 37.3223C9.93034 36.9186 10.2509 36.6479 10.7282 36.6028C11.2007 36.5577 11.6732 36.5149 12.1433 36.4603C13.1026 36.344 14.0642 36.2561 15.014 36.0899C15.9614 35.9261 16.8945 35.6863 17.8301 35.4678C18.5424 35.3016 19.2618 35.152 19.9599 34.9383C20.7839 34.6843 21.5912 34.3827 22.3985 34.0788C23.4765 33.6728 24.5521 33.262 25.6134 32.818C26.6487 32.3858 27.6744 31.9252 28.6907 31.4455C29.4885 31.0704 30.246 30.5979 31.058 30.2631C32.1859 29.8001 33.2805 29.2729 34.3418 28.6841C35.5101 28.0359 36.6688 27.352 37.7586 26.5803C38.6039 25.9844 39.3068 25.2055 39.9408 24.3721C40.9618 23.0306 41.648 21.5323 42.1727 19.9462C42.7402 18.2295 42.9159 16.4581 42.7022 14.6773C42.536 13.3001 42.0136 12.0108 41.2894 10.8165C40.3705 9.29923 39.1762 8.00754 37.7871 6.9343C35.8116 5.40754 33.5725 4.97778 31.1411 5.64974C30.6306 5.78983 30.1035 5.86581 29.5859 5.98216C29.1608 6.07714 28.7382 6.17686 28.3179 6.28608C27.862 6.40243 27.4156 6.55202 26.955 6.647C26.4208 6.75859 25.8723 6.80371 25.3404 6.92005C24.6993 7.06014 24.0511 7.20498 23.4337 7.42343C21.9473 7.94581 20.5868 8.70088 19.3663 9.71238C17.9797 10.8592 16.726 12.1296 15.5672 13.502C14.5581 14.6987 13.5513 15.8978 12.4781 17.0375C11.3146 18.2722 10.0514 19.4072 8.70514 20.4472C7.47756 21.3946 6.18349 22.2328 4.7992 22.9237C3.85655 23.3938 2.86642 23.7548 1.84304 24.0231C1.75281 24.0468 1.66733 24.0896 1.57947 24.1228C0.803036 24.4125 0.0883328 23.9162 0.0360954 23.0875C-0.0137677 22.2969 0.397008 21.7175 0.874269 21.1833C1.13071 20.8959 1.48212 20.6822 1.81692 20.4757C3.6476 19.3478 5.49966 18.2508 7.10715 16.8072C8.31098 15.7244 9.43171 14.5586 10.4788 13.3191C11.184 12.4857 11.894 11.657 12.6277 10.8474C13.3733 10.0234 14.1378 9.21375 14.9166 8.41832C16.422 6.87969 18.1269 5.62599 20.1238 4.78307C21.3418 4.26782 22.5979 3.88078 23.8896 3.60298C24.6945 3.42964 25.4852 3.18983 26.2878 2.9975C26.7271 2.89302 27.1782 2.82417 27.6222 2.74106C29.2368 2.43476 30.8562 2.10471 32.3924 2.16645Z" fill="black"/>
<path id="Vector_2" d="M0.0365127 30.7969C0.468659 30.7969 0.810576 30.7518 1.13825 30.804C2.35633 30.9987 3.5198 30.8278 4.62154 30.2935C5.24601 29.992 5.84911 29.6429 6.4451 29.2915C7.32126 28.7763 8.16656 28.2064 9.1282 27.8526C9.99249 27.5344 10.8497 27.1925 11.7282 26.9195C12.2292 26.7651 12.7658 26.7176 13.2882 26.644C16.6148 26.1786 19.9556 26.4826 23.2917 26.4873C24.676 26.4897 26.0626 26.4659 27.4445 26.3781C28.1711 26.333 28.8882 26.124 29.6077 25.9887C30.1063 25.8961 30.6192 25.8391 31.1035 25.699C31.8467 25.4853 32.5971 25.2669 33.2999 24.9534C34.2259 24.5427 35.1329 24.0725 36.0115 23.5668C37.1963 22.8806 38.215 21.983 38.9344 20.8077C39.3357 20.1523 39.6634 19.4281 39.6776 18.6303C39.6895 17.9109 39.7465 17.1701 39.6064 16.4743C39.4378 15.6267 39.1054 14.8051 38.6139 14.0714C37.5644 12.4972 36.2276 11.2791 34.4064 10.6451C33.535 10.3412 32.6469 10.1417 31.7375 10.2628C30.8827 10.3768 30.0256 10.5074 29.1945 10.7781C27.3401 11.3836 25.7112 12.3737 24.156 13.5324C21.6343 15.4106 19.4878 17.6853 17.2867 19.9078C16.0924 21.114 14.9147 22.3439 13.6396 23.4647C12.1675 24.7587 10.5529 25.8842 8.80765 26.796C7.70829 27.3706 6.57806 27.8716 5.40035 28.28C4.43158 28.6148 3.46044 28.8902 2.44893 29.0422C2.09514 29.0968 1.75085 29.2274 1.39706 29.244C0.60875 29.2796 0.0840012 28.7003 0.0151428 27.9191C-0.0632134 27.0002 0.596878 26.2546 1.23797 26.0219C1.65825 25.8676 2.12126 25.8415 2.56528 25.7489C3.67176 25.5209 4.783 25.3286 5.81112 24.8157C6.51633 24.4643 7.26428 24.1912 7.97186 23.8446C9.14007 23.2723 10.2014 22.5291 11.2509 21.7598C13.2787 20.2711 15.0785 18.5259 16.8926 16.7996C17.8329 15.9045 18.7138 14.95 19.6659 14.0691C21.0811 12.7607 22.5817 11.5498 24.2438 10.5668C24.9205 10.1655 25.6613 9.85919 26.3974 9.57188C27.2332 9.24659 28.0833 8.93316 28.9523 8.71471C30.3936 8.3538 31.8776 8.18759 33.3474 8.4559C34.6319 8.69097 35.7883 9.28932 36.8402 10.08C38.4595 11.2981 39.699 12.8201 40.492 14.6769C40.7983 15.394 41.0928 16.1443 41.0643 16.9611C41.0571 17.1463 41.1189 17.3339 41.1426 17.5238C41.1687 17.7494 41.2186 17.9774 41.202 18.2006C41.031 20.3542 40.162 22.1445 38.4666 23.524C37.4528 24.348 36.3748 25.0722 35.2256 25.6753C34.5987 26.0053 33.9457 26.295 33.2382 26.4659C32.533 26.6345 31.8634 26.948 31.17 27.1783C30.7806 27.3089 30.3841 27.4323 29.9804 27.5083C28.9024 27.7101 27.8221 27.8906 26.7393 28.0663C25.7682 28.223 24.7971 28.3916 23.8188 28.4961C22.6126 28.6243 21.3969 28.6765 20.1907 28.7953C19.0628 28.9069 17.9397 29.0564 16.8142 29.2037C16.1779 29.2868 15.5368 29.3651 14.9099 29.4957C14.1715 29.6477 13.4378 29.8258 12.716 30.0395C11.5762 30.3766 10.4484 30.747 9.31816 31.1151C8.72692 31.3074 8.15469 31.5615 7.55633 31.7253C6.32163 32.0648 5.10592 32.4661 3.81423 32.6205C3.02354 32.7154 2.23998 32.7938 1.44692 32.7772C1.1145 32.7701 0.784457 32.6656 0.454412 32.5967C0.167106 32.5374 0.0483844 32.3237 0.0388867 32.0577C0.0246402 31.6541 0.0365127 31.2599 0.0365127 30.7969Z" fill="black"/>
<path id="Vector_3" d="M38.4854 1.32581C38.445 1.14535 38.5329 1.03138 38.7181 1.02901C39.7438 1.02663 40.7791 0.9459 41.7906 1.06462C42.9517 1.19996 43.9703 1.75084 44.8679 2.5249C46.0836 3.57677 47.2589 4.66426 48.3345 5.85622C49.2867 6.91285 50.0845 8.08344 50.6638 9.387C50.9939 10.1302 51.2574 10.9019 51.2859 11.7306C51.2978 12.0559 51.3975 12.3384 51.597 12.621C51.7822 12.8845 51.8938 13.2431 51.9152 13.5684C51.9745 14.4754 52.2785 15.3587 52.1716 16.2752C52.0624 17.2131 51.9318 18.151 51.8131 19.0889C51.7537 19.5567 51.6658 20.0078 51.4213 20.4305C51.3144 20.6157 51.3263 20.8721 51.2907 21.0953C51.1981 21.6937 51.1696 22.311 51.0058 22.888C50.7944 23.6312 50.5261 24.3673 50.189 25.063C49.6381 26.198 49.0112 27.2949 48.4153 28.4062C48.363 28.5035 48.2965 28.5985 48.2206 28.6816C47.6198 29.3488 47.1378 30.1063 46.5869 30.8115C45.7488 31.8847 44.7705 32.8155 43.6925 33.6584C43.2105 34.0359 42.7712 34.4776 42.2607 34.8361C41.0213 35.7052 39.6964 36.4151 38.3026 36.9945C37.7659 37.2177 37.1961 37.3601 36.6381 37.5311C35.6456 37.8327 34.6531 38.1318 33.6582 38.4215C33.2973 38.526 32.9292 38.6091 32.5612 38.6851C32.0649 38.7872 31.5616 38.8608 31.0677 38.9653C29.9944 39.1956 28.9212 39.4235 27.8527 39.6823C27.5511 39.7559 27.233 39.8818 27.1024 40.3211C27.3208 40.4849 27.5322 40.7223 27.7957 40.8244C28.3822 41.05 28.8381 41.4489 29.2584 41.8716C30.2675 42.8854 30.9869 44.0988 31.5544 45.4095C32.1029 46.6727 32.5659 47.9643 32.9767 49.2774C33.1619 49.8686 33.4112 50.4409 33.6297 51.0226C33.6629 51.1105 33.6843 51.2054 33.7009 51.298C33.8529 52.16 33.2165 52.7132 32.3784 52.4259C31.5259 52.1315 30.8896 51.5925 30.4503 50.778C29.6406 49.2822 28.9901 47.7174 28.3466 46.1503C27.8717 44.9987 27.1285 44.0655 26.1764 43.2915C25.6041 42.8261 25.0058 42.3963 24.4098 41.9594C23.7948 41.5083 23.1133 41.2138 22.3583 41.069C21.7837 40.9598 21.2185 40.8102 20.6534 40.663C20.2498 40.5585 20.0052 40.2522 20.0076 39.9032C20.01 39.547 20.34 39.122 20.7104 39.0365C20.8932 38.9938 21.088 38.9938 21.2755 38.989C21.9024 38.9724 22.5316 38.9961 23.1537 38.9415C24.3219 38.8394 25.4878 38.7041 26.6536 38.5664C27.3659 38.4832 28.0759 38.3812 28.7859 38.2672C29.2156 38.1983 29.6406 38.101 30.0609 37.9894C31.1532 37.6997 32.2573 37.4433 33.3258 37.0871C34.6317 36.6502 35.9068 36.1302 37.1343 35.4986C38.2385 34.9311 39.3069 34.3114 40.29 33.5492C40.8313 33.1289 41.4273 32.7609 41.8998 32.2717C42.1776 31.9844 42.4459 31.6639 42.7119 31.3552C43.2295 30.7545 43.7661 30.168 44.2244 29.5245C45.0222 28.4086 45.8034 27.2783 46.5252 26.1125C47.1782 25.0582 47.7599 23.9589 48.3393 22.8595C48.9543 21.6937 49.4719 20.4732 49.7877 19.1958C50.1557 17.7094 50.4834 16.1969 50.3077 14.6464C50.1272 13.046 49.7972 11.4836 49.0658 10.021C48.3084 8.50608 47.1829 7.31413 45.9601 6.1839C44.5093 4.84234 42.8686 3.7786 41.178 2.78371C40.2947 2.26609 39.3853 1.81257 38.4854 1.32581Z" fill="black"/>
<path id="Vector_4" d="M17.8912 24.2602C17.744 23.9017 17.9078 23.7545 18.1286 23.6524C18.2284 23.6073 18.3495 23.6025 18.4611 23.5954C20.2419 23.5004 22.0227 23.4387 23.8011 23.3081C24.6631 23.244 25.5155 23.0279 26.3774 22.9329C27.4411 22.8166 28.4598 22.5222 29.457 22.166C30.8057 21.684 32.133 21.126 33.1611 20.0765C33.8022 19.4235 34.3484 18.7064 34.4647 17.7472C34.4885 17.5453 34.6285 17.3506 34.6285 17.1512C34.6333 15.9925 34.1442 15.1234 32.8643 15.0118C32.2043 14.9548 31.5252 14.9311 30.8746 15.0261C30.2121 15.1211 29.5568 15.3348 28.9299 15.5769C27.7736 16.0233 26.8238 16.8093 25.8408 17.543C25.2543 17.9822 24.6251 18.3622 24.0148 18.7682C23.6539 19.008 23.2835 19.2359 22.9297 19.4876C22.8039 19.5779 22.7184 19.7251 22.538 19.9364C22.8348 19.9696 23.0152 20.0076 23.198 20.01C23.8415 20.0124 24.4802 20.01 25.119 19.8509C25.7411 19.6942 26.3964 19.68 27.0256 19.5494C28.1796 19.3072 29.2908 18.9344 30.2026 18.1485C30.5849 17.8208 30.9244 17.4337 31.245 17.0443C31.4136 16.8401 31.5394 16.6383 31.8386 16.7618C32.0713 16.8591 32.2399 17.2818 32.1686 17.5311C31.9621 18.2434 31.556 18.8275 30.9553 19.2478C29.9913 19.9245 28.9489 20.4588 27.7949 20.7342C27.0612 20.9099 26.3085 21.0049 25.582 21.1972C24.3473 21.5249 23.0959 21.4323 21.8494 21.3824C21.2344 21.3587 20.7168 21.0785 20.363 20.5158C20.0543 20.0266 20.116 19.5399 20.3012 19.0626C20.5268 18.4737 20.9613 18.0131 21.4267 17.6047C22.3338 16.8093 23.2622 16.0352 24.2001 15.2754C24.9622 14.658 25.7387 14.0526 26.5341 13.4803C27.2702 12.9484 28.0917 12.6065 28.9845 12.3738C30.2857 12.0343 31.5537 12.2456 32.8145 12.4641C33.5838 12.597 34.3531 12.8297 35.0203 13.2975C35.754 13.8104 36.2717 14.442 36.5518 15.3276C36.7845 16.0613 36.8439 16.7903 36.7584 17.5145C36.6563 18.393 36.3785 19.2431 35.925 20.0242C35.0583 21.5178 33.7001 22.4058 32.1758 23.0754C31.1595 23.5242 30.0981 23.8352 29.0035 24.0655C28.2105 24.2317 27.415 24.379 26.6172 24.5167C24.8198 24.8325 23.02 24.7209 21.2249 24.6496C20.0994 24.595 18.9787 24.3884 17.8912 24.2602Z" fill="black"/>
<path id="Vector_5" d="M50.9557 33.4849C51.0578 33.6677 51.1599 33.7769 51.1789 33.8956C51.3356 34.862 51.5327 35.8142 51.3665 36.8162C51.1551 38.0794 50.4618 39.0268 49.6355 39.9386C48.738 40.9311 47.9188 41.9948 47.0118 42.9778C46.4538 43.5833 45.7937 44.0962 45.1787 44.6494C44.6896 45.0887 44.0983 45.433 43.8134 46.0575C43.6543 46.4089 43.4762 46.7864 43.4572 47.1616C43.3955 48.2989 43.3955 49.4387 43.3931 50.5784C43.3931 50.8372 43.4454 51.1055 43.5166 51.3572C43.6614 51.8701 43.3219 52.3901 42.7805 52.4684C42.2843 52.5397 41.8331 52.3616 41.4223 52.1479C40.634 51.7395 40.1639 51.058 39.8813 50.208C39.651 49.5123 39.6083 48.7952 39.5204 48.09C39.4231 47.323 39.6534 46.5632 39.8362 45.8081C40.0665 44.8536 40.596 44.0986 41.2371 43.4029C41.5553 43.0586 41.9067 42.7285 42.2961 42.4697C43.3029 41.7977 44.0485 40.8693 44.8415 39.9884C45.8483 38.8701 46.8432 37.7446 47.8523 36.6262C48.4578 35.9566 49.0799 35.3037 49.6854 34.6341C49.9584 34.3302 50.3336 34.1331 50.5425 33.7579C50.5971 33.6463 50.7752 33.5988 50.9557 33.4849Z" fill="black"/>
<path id="Vector_6" d="M3.98008 37.2961C3.33423 37.2961 2.69076 37.3032 2.04492 37.2937C1.4157 37.2842 0.864828 37.0587 0.392316 36.6431C0.135878 36.4176 -0.0422039 36.1516 0.0409011 35.8026C0.124006 35.4607 0.394691 35.2541 0.722362 35.1947C1.0714 35.1306 1.43944 35.0903 1.79086 35.133C2.71213 35.2422 3.62154 35.1045 4.49533 34.8956C5.36437 34.689 6.1788 34.2521 7.03359 33.9648C8.05222 33.6252 9.0851 33.3308 10.1156 33.0293C10.6024 32.8868 11.0962 32.7657 11.5877 32.6398C11.697 32.6114 11.8109 32.5971 11.9225 32.5852C12.9554 32.4808 13.9669 32.3051 14.9499 31.9441C15.5459 31.7233 16.1799 31.6046 16.7996 31.4431C17.6022 31.2366 18.4047 31.0252 19.212 30.8329C19.9909 30.6477 20.7815 30.5551 21.5793 30.6762C21.8168 30.7118 22.0614 30.7925 22.2656 30.916C22.6455 31.1463 22.6573 31.3695 22.2846 31.5975C21.8524 31.861 21.3989 32.1175 20.9216 32.2766C19.6038 32.7158 18.2623 33.0862 16.9421 33.5184C15.9757 33.8342 15.0164 34.1856 14.0714 34.5608C12.8509 35.0475 11.6542 35.5936 10.4314 36.0756C9.55524 36.4223 8.67195 36.7761 7.76254 37.0017C6.95999 37.1988 6.11706 37.2391 5.28839 37.3175C4.85624 37.3578 4.41697 37.3246 3.98008 37.3246C3.98008 37.3151 3.98008 37.3056 3.98008 37.2961Z" fill="black"/>
<path id="Vector_7" d="M1.5434 38.4758C2.11801 38.5851 2.70449 38.6492 3.26248 38.8106C4.34997 39.1264 5.3781 39.5847 6.33499 40.2044C7.22541 40.779 7.87125 41.584 8.47673 42.4269C9.1012 43.2935 9.69719 44.1792 10.3145 45.0506C10.6517 45.5279 11.0031 45.9956 11.3522 46.4634C11.6395 46.8481 12.0028 47.1401 12.4492 47.3158C13.4512 47.71 14.4437 48.135 15.4647 48.4722C16.5973 48.845 17.5779 49.4552 18.4707 50.2126C18.9432 50.6139 19.3659 51.0769 19.7956 51.5281C19.9072 51.6444 19.9785 51.8154 20.0212 51.9745C20.0972 52.2689 19.9595 52.447 19.6508 52.4636C18.9195 52.504 18.2451 52.3235 17.5969 51.9792C16.6851 51.4948 15.7591 51.0342 14.8212 50.5973C13.8026 50.12 12.7507 49.7164 11.7463 49.2177C10.7348 48.7144 9.95362 47.9379 9.31015 47C8.89938 46.3993 8.41262 45.8389 7.90212 45.3166C6.94522 44.3335 5.98833 43.341 4.95545 42.4435C3.96294 41.5816 2.78997 41.0141 1.45792 40.855C0.997277 40.8004 0.633989 40.5582 0.327688 40.2567C0.0356333 39.9693 -0.0925858 39.5562 0.0736242 39.1597C0.23746 38.7655 0.619743 38.604 1.0234 38.5328C1.18961 38.5043 1.36294 38.5281 1.5339 38.5281C1.53865 38.5067 1.54102 38.4925 1.5434 38.4758Z" fill="black"/>
<path id="Vector_8" d="M51.4552 28.6011C51.3792 29.2232 51.3792 29.8501 51.2082 30.4271C51.0682 30.8948 50.7714 31.3412 50.4603 31.7283C50.002 32.2981 49.4607 32.8015 48.9692 33.3429C48.8172 33.5091 48.727 33.7299 48.575 33.8961C48.0146 34.504 47.459 35.119 46.8654 35.6936C45.7281 36.7953 44.5836 37.8899 43.4106 38.9537C42.9096 39.4072 42.3374 39.7895 41.7794 40.1741C40.6872 40.9244 39.4786 41.4231 38.2272 41.8457C37.6574 42.038 37.1208 42.3348 36.5818 42.6079C36.1734 42.8121 35.9739 43.1113 36.0618 43.6218C36.2517 44.7021 36.3776 45.7896 36.7266 46.8439C36.9854 47.6274 37.0733 48.4656 37.2632 49.2729C37.4437 50.0422 37.6574 50.8044 37.8545 51.569C37.8877 51.6972 37.9304 51.8207 37.9518 51.9513C37.9874 52.1626 37.9043 52.3573 37.712 52.4167C37.5743 52.4594 37.3487 52.4357 37.2514 52.3454C36.9925 52.1056 36.7076 51.8468 36.5699 51.5358C36.2755 50.8614 36.057 50.1538 35.8291 49.4534C35.3827 48.0738 35.0028 46.6753 34.2762 45.4002C34.0079 44.9301 33.8227 44.4077 33.6327 43.8972C33.2291 42.8168 33.7396 41.4468 34.744 40.7558C35.2687 40.3949 35.8552 40.1456 36.4678 39.9533C37.8355 39.5235 39.196 39.0747 40.5518 38.6141C42.6128 37.9137 44.2963 36.6433 45.8207 35.1285C46.2718 34.6797 46.7989 34.3069 47.2406 33.8534C48.1666 32.9012 49.0998 31.9562 49.8976 30.8806C50.3606 30.2561 50.6241 29.5533 50.9851 28.8885C51.0705 28.7246 51.1014 28.4967 51.4552 28.6011Z" fill="black"/>
<path id="Vector_9" d="M25.9664 1.05139C24.1262 1.57139 22.2718 1.92756 20.5147 2.61377C18.3896 3.44482 16.4141 4.53468 14.8707 6.26327C13.8426 7.41249 12.881 8.62108 11.8623 9.78217C10.706 11.1 9.39529 12.254 8.01337 13.3343C6.6457 14.4028 5.22816 15.3953 3.75127 16.2976C3.02944 16.7393 2.28387 17.1524 1.52168 17.5204C1.251 17.651 0.880585 17.6771 0.579033 17.6249C0.0139186 17.5252 -0.0715614 17.1999 0.0804021 16.5707C0.194375 16.1005 0.460311 15.6684 0.875836 15.3716C1.25337 15.1009 1.62378 14.8112 2.03218 14.5904C3.82725 13.6192 5.56296 12.5603 7.08497 11.1902C8.07985 10.295 9.0415 9.36902 10.0316 8.46911C11.3566 7.2629 12.6886 6.06618 14.2106 5.10217C15.8347 4.07404 17.4755 3.07441 19.1969 2.21487C19.8665 1.88007 20.5456 1.54527 21.2532 1.30546C21.7637 1.13212 22.3241 1.06802 22.8654 1.0419C23.7178 0.996784 24.5726 1.0229 25.4251 1.0229C25.6055 1.01815 25.786 1.03952 25.9664 1.05139Z" fill="black"/>
<path id="Vector_10" d="M14.4164 1.42838C14.2525 1.62545 14.1077 1.85102 13.9154 2.02198C12.9395 2.8839 11.9304 3.70783 10.9758 4.59349C10.216 5.29632 9.49893 6.04902 8.80323 6.81596C7.77747 7.94618 6.61163 8.87696 5.29145 9.6439C4.00213 10.3942 2.64633 11.0045 1.29766 11.6289C0.649438 11.9281 0.0890726 11.5245 0.0297119 10.7955C-0.074763 9.50856 0.499849 8.58966 1.58259 7.95331C2.31154 7.52354 3.08323 7.16025 3.77656 6.68062C4.59811 6.11313 5.3793 5.4839 6.13437 4.82856C7.38807 3.74345 8.6014 2.61085 9.84085 1.50911C10.2208 1.17194 10.6743 1.01286 11.1943 1.01998C11.9897 1.03185 12.7875 1.01048 13.5853 1.0176C13.8798 1.02235 14.2051 0.989106 14.4164 1.42838Z" fill="black"/>
<path id="Vector_11" d="M11.6303 52.4877C10.9963 52.4877 10.4146 52.4877 9.83285 52.4877C7.21623 52.4853 4.59723 52.4948 1.98061 52.4711C1.45824 52.4664 0.931115 52.3595 0.422987 52.236C0.273398 52.2004 0.0976896 51.963 0.0691965 51.7968C0.00983576 51.4453 0.021708 51.0797 0.0359546 50.7188C0.0478268 50.4481 0.290019 50.1893 0.591571 50.1655C0.867005 50.1442 1.16143 50.1631 1.42737 50.2391C1.97349 50.3911 2.50299 50.6024 3.04436 50.7686C3.22006 50.8232 3.41952 50.8399 3.60235 50.8185C3.88253 50.7853 3.97513 50.5502 3.80417 50.3222C3.71869 50.2059 3.57623 50.1323 3.46226 50.0373C2.69532 49.3962 1.89751 48.7884 1.17093 48.1069C0.453854 47.4326 0.000338366 46.5968 0.0240827 45.5663C0.0312059 45.2433 0.0145844 44.9204 0.0383287 44.5999C0.0502008 44.4147 0.0953152 44.2247 0.166548 44.0537C0.32326 43.6905 0.425361 43.6572 0.769653 43.8495C2.29404 44.6948 3.66171 45.761 4.97002 46.9054C5.79395 47.6273 6.44216 48.5058 7.17349 49.3131C7.63413 49.8236 8.20162 50.2629 8.78573 50.6309C9.51705 51.0916 10.3196 51.4358 11.0794 51.8514C11.3002 51.9677 11.5852 52.0508 11.6303 52.4877Z" fill="black"/>
<path id="Vector_12" d="M49.7047 52.4119C48.6362 52.6114 47.7481 52.438 47.1379 51.5643C46.9408 51.2841 46.8387 50.9065 46.7912 50.5599C46.6844 49.7977 46.815 49.0497 47.0809 48.3279C47.316 47.6892 47.5534 47.0505 47.7719 46.407C48.261 44.9586 49.0351 43.6883 50.1344 42.6269C50.2935 42.4726 50.4977 42.3467 50.7043 42.2636C51.1127 42.0998 51.4 42.2707 51.4 42.7053C51.3976 43.3677 51.3311 44.0349 50.9512 44.6095C50.3505 45.5213 49.9991 46.5186 49.7806 47.5847C49.6429 48.2662 49.415 48.9263 49.2321 49.6006C49.1063 50.0707 48.9567 50.5385 48.8807 51.0181C48.8071 51.4859 49.0256 51.8516 49.4387 52.1009C49.5361 52.1579 49.5954 52.2813 49.7047 52.4119Z" fill="black"/>
<path id="Vector_13" d="M6.88026 1.10001C6.72117 1.22586 6.6072 1.34695 6.46948 1.42055C5.37487 2.01179 4.27788 2.59827 3.17615 3.17764C2.50893 3.52905 1.83697 3.86859 1.16026 4.20101C0.671125 4.44083 0.0798926 4.10366 0.0371529 3.55042C0.0110342 3.21087 0.0134085 2.86421 0.0537738 2.52704C0.0965135 2.18512 0.227107 1.8812 0.559528 1.68649C0.970304 1.44668 1.3977 1.30421 1.86546 1.19973C3.46583 0.845942 5.08044 1.10475 6.68555 1.02877C6.73304 1.0264 6.78291 1.06202 6.88026 1.10001Z" fill="black"/>
</g>
<g id="WOOD CRAFT STUDIO" filter="url(#filter0_d_0_1)">
<mask id="path-14-outside-1_0_1" maskUnits="userSpaceOnUse" x="57.3594" y="0" width="65" height="54" fill="black">
<rect fill="white" x="57.3594" width="65" height="54"/>
<path d="M63.115 12.4951H65.1447L67.6378 5.01847L70.083 12.4951H72.1126L75.8843 1.22414H73.3752L71.0738 8.78079L68.5328 1.19212H66.7428L64.2178 8.78079L61.9164 1.22414H59.3594L63.115 12.4951Z"/>
<path d="M82.2154 10.4938C80.2497 10.4938 78.7634 8.94089 78.7634 6.82759C78.7634 4.71429 80.2497 3.16133 82.2154 3.16133C84.1812 3.16133 85.6674 4.71429 85.6674 6.82759C85.6674 8.94089 84.1812 10.4938 82.2154 10.4938ZM82.2154 12.6552C85.5875 12.6552 88.0167 10.0456 88.0167 6.82759C88.0167 3.5936 85.5875 1 82.2154 1C78.8433 1 76.4141 3.5936 76.4141 6.82759C76.4141 10.0456 78.8433 12.6552 82.2154 12.6552Z"/>
<path d="M95.5126 10.4938C93.5468 10.4938 92.0606 8.94089 92.0606 6.82759C92.0606 4.71429 93.5468 3.16133 95.5126 3.16133C97.4783 3.16133 98.9646 4.71429 98.9646 6.82759C98.9646 8.94089 97.4783 10.4938 95.5126 10.4938ZM95.5126 12.6552C98.8847 12.6552 101.314 10.0456 101.314 6.82759C101.314 3.5936 98.8847 1 95.5126 1C92.1405 1 89.7113 3.5936 89.7113 6.82759C89.7113 10.0456 92.1405 12.6552 95.5126 12.6552Z"/>
<path d="M103.392 12.431H107.579C111.207 12.431 113.716 10.1256 113.716 6.82759C113.716 3.52956 111.207 1.22414 107.579 1.22414H103.392V12.431ZM105.693 10.3658V3.28941H107.387C109.896 3.28941 111.351 4.60222 111.351 6.82759C111.351 9.05296 109.896 10.3658 107.387 10.3658H105.693Z"/>
<path d="M65.9278 32.8276C67.0944 32.8276 68.2131 32.5394 69.1081 32.0111V29.6897C68.2131 30.3941 67.1903 30.6663 66.0396 30.6663C63.8662 30.6663 62.2201 29.1613 62.2201 27C62.2201 24.8707 63.8342 23.3337 65.9438 23.3337C67.2063 23.3337 68.0693 23.6379 68.8844 24.1983V21.8768C68.0054 21.4126 67.0305 21.1724 65.9278 21.1724C62.4598 21.1724 59.8708 23.5899 59.8708 27C59.8708 30.4101 62.4918 32.8276 65.9278 32.8276Z"/>
<path d="M71.07 32.6034H73.3713V28.0727H75.3051L78.5653 32.6034H81.2342L77.7822 27.8165C79.2525 27.3682 80.0995 26.1835 80.0995 24.7106C80.0995 22.7894 78.6612 21.3965 76.248 21.3965H71.07V32.6034ZM73.3713 26.1355V23.4138H76.1201C77.1589 23.4138 77.7822 23.8941 77.7822 24.7746C77.7822 25.6712 77.1589 26.1355 76.1201 26.1355H73.3713Z"/>
<path d="M81.7691 32.6034H84.1823L85.285 30.0099H90.0155L91.1183 32.6034H93.5634L88.769 21.3325H86.5635L81.7691 32.6034ZM86.0042 28.1047L87.6503 24.2143L89.2804 28.1047H86.0042Z"/>
<path d="M95.0422 32.6034H97.3436V27.7685H101.898V25.7352H97.3436V23.4618H103.241V21.3965H95.0422V32.6034Z"/>
<path d="M104.326 21.3965V23.4618H107.858V32.6034H110.16V23.4618H113.708V21.3965H104.326Z"/>
<path d="M63.9621 53C66.4552 53 68.4049 51.7032 68.4049 49.5259C68.4049 47.3965 66.6469 46.6121 64.857 46.0197C63.3228 45.5554 62.1402 45.3793 62.1402 44.5628C62.1402 43.9384 62.6516 43.4581 64.042 43.4581C65.3684 43.4581 66.7748 43.9544 67.6698 44.5148V42.2734C66.7588 41.7771 65.5282 41.3448 64.01 41.3448C61.421 41.3448 59.7909 42.5456 59.7909 44.5468C59.7909 46.8362 61.5968 47.3645 63.5306 47.9729C64.9849 48.4372 66.0237 48.6133 66.0237 49.5899C66.0237 50.4864 64.9689 50.8867 63.8662 50.8867C62.316 50.8867 60.6219 50.1663 59.711 49.3978V51.7993C60.8137 52.5677 62.316 53 63.9621 53Z"/>
<path d="M69.2419 41.569V43.6342H72.7739V52.7759H75.0752V43.6342H78.6231V41.569H69.2419Z"/>
<path d="M84.9751 53C87.66 53 89.7856 51.319 89.7856 48.069V41.569H87.4842V48.149C87.4842 49.9901 86.3975 50.8387 84.9751 50.8387C83.5687 50.8387 82.482 49.9901 82.482 48.149V41.569H80.1966V48.069C80.1966 51.319 82.2902 53 84.9751 53Z"/>
<path d="M92.0925 52.7759H96.2797C99.9075 52.7759 102.417 50.4704 102.417 47.1724C102.417 43.8744 99.9075 41.569 96.2797 41.569H92.0925V52.7759ZM94.3939 50.7106V43.6342H96.0879C98.597 43.6342 100.051 44.947 100.051 47.1724C100.051 49.3978 98.597 50.7106 96.0879 50.7106H94.3939Z"/>
<path d="M104.58 52.7759H106.865V41.569H104.58V52.7759Z"/>
<path d="M114.818 50.8387C112.853 50.8387 111.366 49.2857 111.366 47.1724C111.366 45.0591 112.853 43.5062 114.818 43.5062C116.784 43.5062 118.27 45.0591 118.27 47.1724C118.27 49.2857 116.784 50.8387 114.818 50.8387ZM114.818 53C118.19 53 120.62 50.3904 120.62 47.1724C120.62 43.9384 118.19 41.3448 114.818 41.3448C111.446 41.3448 109.017 43.9384 109.017 47.1724C109.017 50.3904 111.446 53 114.818 53Z"/>
</mask>
<path d="M63.115 12.4951H65.1447L67.6378 5.01847L70.083 12.4951H72.1126L75.8843 1.22414H73.3752L71.0738 8.78079L68.5328 1.19212H66.7428L64.2178 8.78079L61.9164 1.22414H59.3594L63.115 12.4951Z" fill="black"/>
<path d="M82.2154 10.4938C80.2497 10.4938 78.7634 8.94089 78.7634 6.82759C78.7634 4.71429 80.2497 3.16133 82.2154 3.16133C84.1812 3.16133 85.6674 4.71429 85.6674 6.82759C85.6674 8.94089 84.1812 10.4938 82.2154 10.4938ZM82.2154 12.6552C85.5875 12.6552 88.0167 10.0456 88.0167 6.82759C88.0167 3.5936 85.5875 1 82.2154 1C78.8433 1 76.4141 3.5936 76.4141 6.82759C76.4141 10.0456 78.8433 12.6552 82.2154 12.6552Z" fill="black"/>
<path d="M95.5126 10.4938C93.5468 10.4938 92.0606 8.94089 92.0606 6.82759C92.0606 4.71429 93.5468 3.16133 95.5126 3.16133C97.4783 3.16133 98.9646 4.71429 98.9646 6.82759C98.9646 8.94089 97.4783 10.4938 95.5126 10.4938ZM95.5126 12.6552C98.8847 12.6552 101.314 10.0456 101.314 6.82759C101.314 3.5936 98.8847 1 95.5126 1C92.1405 1 89.7113 3.5936 89.7113 6.82759C89.7113 10.0456 92.1405 12.6552 95.5126 12.6552Z" fill="black"/>
<path d="M103.392 12.431H107.579C111.207 12.431 113.716 10.1256 113.716 6.82759C113.716 3.52956 111.207 1.22414 107.579 1.22414H103.392V12.431ZM105.693 10.3658V3.28941H107.387C109.896 3.28941 111.351 4.60222 111.351 6.82759C111.351 9.05296 109.896 10.3658 107.387 10.3658H105.693Z" fill="black"/>
<path d="M65.9278 32.8276C67.0944 32.8276 68.2131 32.5394 69.1081 32.0111V29.6897C68.2131 30.3941 67.1903 30.6663 66.0396 30.6663C63.8662 30.6663 62.2201 29.1613 62.2201 27C62.2201 24.8707 63.8342 23.3337 65.9438 23.3337C67.2063 23.3337 68.0693 23.6379 68.8844 24.1983V21.8768C68.0054 21.4126 67.0305 21.1724 65.9278 21.1724C62.4598 21.1724 59.8708 23.5899 59.8708 27C59.8708 30.4101 62.4918 32.8276 65.9278 32.8276Z" fill="black"/>
<path d="M71.07 32.6034H73.3713V28.0727H75.3051L78.5653 32.6034H81.2342L77.7822 27.8165C79.2525 27.3682 80.0995 26.1835 80.0995 24.7106C80.0995 22.7894 78.6612 21.3965 76.248 21.3965H71.07V32.6034ZM73.3713 26.1355V23.4138H76.1201C77.1589 23.4138 77.7822 23.8941 77.7822 24.7746C77.7822 25.6712 77.1589 26.1355 76.1201 26.1355H73.3713Z" fill="black"/>
<path d="M81.7691 32.6034H84.1823L85.285 30.0099H90.0155L91.1183 32.6034H93.5634L88.769 21.3325H86.5635L81.7691 32.6034ZM86.0042 28.1047L87.6503 24.2143L89.2804 28.1047H86.0042Z" fill="black"/>
<path d="M95.0422 32.6034H97.3436V27.7685H101.898V25.7352H97.3436V23.4618H103.241V21.3965H95.0422V32.6034Z" fill="black"/>
<path d="M104.326 21.3965V23.4618H107.858V32.6034H110.16V23.4618H113.708V21.3965H104.326Z" fill="black"/>
<path d="M63.9621 53C66.4552 53 68.4049 51.7032 68.4049 49.5259C68.4049 47.3965 66.6469 46.6121 64.857 46.0197C63.3228 45.5554 62.1402 45.3793 62.1402 44.5628C62.1402 43.9384 62.6516 43.4581 64.042 43.4581C65.3684 43.4581 66.7748 43.9544 67.6698 44.5148V42.2734C66.7588 41.7771 65.5282 41.3448 64.01 41.3448C61.421 41.3448 59.7909 42.5456 59.7909 44.5468C59.7909 46.8362 61.5968 47.3645 63.5306 47.9729C64.9849 48.4372 66.0237 48.6133 66.0237 49.5899C66.0237 50.4864 64.9689 50.8867 63.8662 50.8867C62.316 50.8867 60.6219 50.1663 59.711 49.3978V51.7993C60.8137 52.5677 62.316 53 63.9621 53Z" fill="black"/>
<path d="M69.2419 41.569V43.6342H72.7739V52.7759H75.0752V43.6342H78.6231V41.569H69.2419Z" fill="black"/>
<path d="M84.9751 53C87.66 53 89.7856 51.319 89.7856 48.069V41.569H87.4842V48.149C87.4842 49.9901 86.3975 50.8387 84.9751 50.8387C83.5687 50.8387 82.482 49.9901 82.482 48.149V41.569H80.1966V48.069C80.1966 51.319 82.2902 53 84.9751 53Z" fill="black"/>
<path d="M92.0925 52.7759H96.2797C99.9075 52.7759 102.417 50.4704 102.417 47.1724C102.417 43.8744 99.9075 41.569 96.2797 41.569H92.0925V52.7759ZM94.3939 50.7106V43.6342H96.0879C98.597 43.6342 100.051 44.947 100.051 47.1724C100.051 49.3978 98.597 50.7106 96.0879 50.7106H94.3939Z" fill="black"/>
<path d="M104.58 52.7759H106.865V41.569H104.58V52.7759Z" fill="black"/>
<path d="M114.818 50.8387C112.853 50.8387 111.366 49.2857 111.366 47.1724C111.366 45.0591 112.853 43.5062 114.818 43.5062C116.784 43.5062 118.27 45.0591 118.27 47.1724C118.27 49.2857 116.784 50.8387 114.818 50.8387ZM114.818 53C118.19 53 120.62 50.3904 120.62 47.1724C120.62 43.9384 118.19 41.3448 114.818 41.3448C111.446 41.3448 109.017 43.9384 109.017 47.1724C109.017 50.3904 111.446 53 114.818 53Z" fill="black"/>
<path d="M63.115 12.4951H65.1447L67.6378 5.01847L70.083 12.4951H72.1126L75.8843 1.22414H73.3752L71.0738 8.78079L68.5328 1.19212H66.7428L64.2178 8.78079L61.9164 1.22414H59.3594L63.115 12.4951Z" stroke="black" stroke-width="2" mask="url(#path-14-outside-1_0_1)"/>
<path d="M82.2154 10.4938C80.2497 10.4938 78.7634 8.94089 78.7634 6.82759C78.7634 4.71429 80.2497 3.16133 82.2154 3.16133C84.1812 3.16133 85.6674 4.71429 85.6674 6.82759C85.6674 8.94089 84.1812 10.4938 82.2154 10.4938ZM82.2154 12.6552C85.5875 12.6552 88.0167 10.0456 88.0167 6.82759C88.0167 3.5936 85.5875 1 82.2154 1C78.8433 1 76.4141 3.5936 76.4141 6.82759C76.4141 10.0456 78.8433 12.6552 82.2154 12.6552Z" stroke="black" stroke-width="2" mask="url(#path-14-outside-1_0_1)"/>
<path d="M95.5126 10.4938C93.5468 10.4938 92.0606 8.94089 92.0606 6.82759C92.0606 4.71429 93.5468 3.16133 95.5126 3.16133C97.4783 3.16133 98.9646 4.71429 98.9646 6.82759C98.9646 8.94089 97.4783 10.4938 95.5126 10.4938ZM95.5126 12.6552C98.8847 12.6552 101.314 10.0456 101.314 6.82759C101.314 3.5936 98.8847 1 95.5126 1C92.1405 1 89.7113 3.5936 89.7113 6.82759C89.7113 10.0456 92.1405 12.6552 95.5126 12.6552Z" stroke="black" stroke-width="2" mask="url(#path-14-outside-1_0_1)"/>
<path d="M103.392 12.431H107.579C111.207 12.431 113.716 10.1256 113.716 6.82759C113.716 3.52956 111.207 1.22414 107.579 1.22414H103.392V12.431ZM105.693 10.3658V3.28941H107.387C109.896 3.28941 111.351 4.60222 111.351 6.82759C111.351 9.05296 109.896 10.3658 107.387 10.3658H105.693Z" stroke="black" stroke-width="2" mask="url(#path-14-outside-1_0_1)"/>
<path d="M65.9278 32.8276C67.0944 32.8276 68.2131 32.5394 69.1081 32.0111V29.6897C68.2131 30.3941 67.1903 30.6663 66.0396 30.6663C63.8662 30.6663 62.2201 29.1613 62.2201 27C62.2201 24.8707 63.8342 23.3337 65.9438 23.3337C67.2063 23.3337 68.0693 23.6379 68.8844 24.1983V21.8768C68.0054 21.4126 67.0305 21.1724 65.9278 21.1724C62.4598 21.1724 59.8708 23.5899 59.8708 27C59.8708 30.4101 62.4918 32.8276 65.9278 32.8276Z" stroke="black" stroke-width="2" mask="url(#path-14-outside-1_0_1)"/>
<path d="M71.07 32.6034H73.3713V28.0727H75.3051L78.5653 32.6034H81.2342L77.7822 27.8165C79.2525 27.3682 80.0995 26.1835 80.0995 24.7106C80.0995 22.7894 78.6612 21.3965 76.248 21.3965H71.07V32.6034ZM73.3713 26.1355V23.4138H76.1201C77.1589 23.4138 77.7822 23.8941 77.7822 24.7746C77.7822 25.6712 77.1589 26.1355 76.1201 26.1355H73.3713Z" stroke="black" stroke-width="2" mask="url(#path-14-outside-1_0_1)"/>
<path d="M81.7691 32.6034H84.1823L85.285 30.0099H90.0155L91.1183 32.6034H93.5634L88.769 21.3325H86.5635L81.7691 32.6034ZM86.0042 28.1047L87.6503 24.2143L89.2804 28.1047H86.0042Z" stroke="black" stroke-width="2" mask="url(#path-14-outside-1_0_1)"/>
<path d="M95.0422 32.6034H97.3436V27.7685H101.898V25.7352H97.3436V23.4618H103.241V21.3965H95.0422V32.6034Z" stroke="black" stroke-width="2" mask="url(#path-14-outside-1_0_1)"/>
<path d="M104.326 21.3965V23.4618H107.858V32.6034H110.16V23.4618H113.708V21.3965H104.326Z" stroke="black" stroke-width="2" mask="url(#path-14-outside-1_0_1)"/>
<path d="M63.9621 53C66.4552 53 68.4049 51.7032 68.4049 49.5259C68.4049 47.3965 66.6469 46.6121 64.857 46.0197C63.3228 45.5554 62.1402 45.3793 62.1402 44.5628C62.1402 43.9384 62.6516 43.4581 64.042 43.4581C65.3684 43.4581 66.7748 43.9544 67.6698 44.5148V42.2734C66.7588 41.7771 65.5282 41.3448 64.01 41.3448C61.421 41.3448 59.7909 42.5456 59.7909 44.5468C59.7909 46.8362 61.5968 47.3645 63.5306 47.9729C64.9849 48.4372 66.0237 48.6133 66.0237 49.5899C66.0237 50.4864 64.9689 50.8867 63.8662 50.8867C62.316 50.8867 60.6219 50.1663 59.711 49.3978V51.7993C60.8137 52.5677 62.316 53 63.9621 53Z" stroke="black" stroke-width="2" mask="url(#path-14-outside-1_0_1)"/>
<path d="M69.2419 41.569V43.6342H72.7739V52.7759H75.0752V43.6342H78.6231V41.569H69.2419Z" stroke="black" stroke-width="2" mask="url(#path-14-outside-1_0_1)"/>
<path d="M84.9751 53C87.66 53 89.7856 51.319 89.7856 48.069V41.569H87.4842V48.149C87.4842 49.9901 86.3975 50.8387 84.9751 50.8387C83.5687 50.8387 82.482 49.9901 82.482 48.149V41.569H80.1966V48.069C80.1966 51.319 82.2902 53 84.9751 53Z" stroke="black" stroke-width="2" mask="url(#path-14-outside-1_0_1)"/>
<path d="M92.0925 52.7759H96.2797C99.9075 52.7759 102.417 50.4704 102.417 47.1724C102.417 43.8744 99.9075 41.569 96.2797 41.569H92.0925V52.7759ZM94.3939 50.7106V43.6342H96.0879C98.597 43.6342 100.051 44.947 100.051 47.1724C100.051 49.3978 98.597 50.7106 96.0879 50.7106H94.3939Z" stroke="black" stroke-width="2" mask="url(#path-14-outside-1_0_1)"/>
<path d="M104.58 52.7759H106.865V41.569H104.58V52.7759Z" stroke="black" stroke-width="2" mask="url(#path-14-outside-1_0_1)"/>
<path d="M114.818 50.8387C112.853 50.8387 111.366 49.2857 111.366 47.1724C111.366 45.0591 112.853 43.5062 114.818 43.5062C116.784 43.5062 118.27 45.0591 118.27 47.1724C118.27 49.2857 116.784 50.8387 114.818 50.8387ZM114.818 53C118.19 53 120.62 50.3904 120.62 47.1724C120.62 43.9384 118.19 41.3448 114.818 41.3448C111.446 41.3448 109.017 43.9384 109.017 47.1724C109.017 50.3904 111.446 53 114.818 53Z" stroke="black" stroke-width="2" mask="url(#path-14-outside-1_0_1)"/>
</g>
</g>
</g>
<defs>
<filter id="filter0_d_0_1" x="53.9722" y="0" width="71.6475" height="62" filterUnits="userSpaceOnUse" color-interpolation-filters="sRGB">
<feFlood flood-opacity="0" result="BackgroundImageFix"/>
<feColorMatrix in="SourceAlpha" type="matrix" values="0 0 0 0 0 0 0 0 0 0 0 0 0 0 0 0 0 0 127 0" result="hardAlpha"/>
<feOffset dy="4"/>
<feGaussianBlur stdDeviation="2"/>
<feComposite in2="hardAlpha" operator="out"/>
<feColorMatrix type="matrix" values="0 0 0 0 0 0 0 0 0 0 0 0 0 0 0 0 0 0 0.25 0"/>
<feBlend mode="normal" in2="BackgroundImageFix" result="effect1_dropShadow_0_1"/>
<feBlend mode="normal" in="SourceGraphic" in2="effect1_dropShadow_0_1" result="shape"/>
</filter>
</defs>
</svg>
